G04 EAGLE Gerber RS-274X export*
G75*
%MOMM*%
%FSLAX34Y34*%
%LPD*%
%INBoard Outline*%
%IPPOS*%
%AMOC8*
5,1,8,0,0,1.08239X$1,22.5*%
G01*
%ADD10C,0.254000*%
%ADD11C,0.000000*%


D10*
X0Y0D02*
X500000Y0D01*
X500000Y500000D01*
X0Y500000D02*
X0Y0D01*
X0Y500000D02*
X500000Y500000D01*
D11*
X15240Y464820D02*
X15245Y465225D01*
X15260Y465630D01*
X15285Y466035D01*
X15320Y466438D01*
X15364Y466841D01*
X15419Y467243D01*
X15483Y467643D01*
X15557Y468041D01*
X15641Y468437D01*
X15735Y468832D01*
X15838Y469223D01*
X15951Y469613D01*
X16073Y469999D01*
X16205Y470382D01*
X16346Y470762D01*
X16497Y471138D01*
X16656Y471511D01*
X16825Y471879D01*
X17003Y472243D01*
X17189Y472603D01*
X17385Y472958D01*
X17589Y473308D01*
X17801Y473653D01*
X18022Y473992D01*
X18252Y474327D01*
X18489Y474655D01*
X18734Y474977D01*
X18988Y475294D01*
X19248Y475604D01*
X19517Y475907D01*
X19793Y476204D01*
X20076Y476494D01*
X20366Y476777D01*
X20663Y477053D01*
X20966Y477322D01*
X21276Y477582D01*
X21593Y477836D01*
X21915Y478081D01*
X22243Y478318D01*
X22578Y478548D01*
X22917Y478769D01*
X23262Y478981D01*
X23612Y479185D01*
X23967Y479381D01*
X24327Y479567D01*
X24691Y479745D01*
X25059Y479914D01*
X25432Y480073D01*
X25808Y480224D01*
X26188Y480365D01*
X26571Y480497D01*
X26957Y480619D01*
X27347Y480732D01*
X27738Y480835D01*
X28133Y480929D01*
X28529Y481013D01*
X28927Y481087D01*
X29327Y481151D01*
X29729Y481206D01*
X30132Y481250D01*
X30535Y481285D01*
X30940Y481310D01*
X31345Y481325D01*
X31750Y481330D01*
X32155Y481325D01*
X32560Y481310D01*
X32965Y481285D01*
X33368Y481250D01*
X33771Y481206D01*
X34173Y481151D01*
X34573Y481087D01*
X34971Y481013D01*
X35367Y480929D01*
X35762Y480835D01*
X36153Y480732D01*
X36543Y480619D01*
X36929Y480497D01*
X37312Y480365D01*
X37692Y480224D01*
X38068Y480073D01*
X38441Y479914D01*
X38809Y479745D01*
X39173Y479567D01*
X39533Y479381D01*
X39888Y479185D01*
X40238Y478981D01*
X40583Y478769D01*
X40922Y478548D01*
X41257Y478318D01*
X41585Y478081D01*
X41907Y477836D01*
X42224Y477582D01*
X42534Y477322D01*
X42837Y477053D01*
X43134Y476777D01*
X43424Y476494D01*
X43707Y476204D01*
X43983Y475907D01*
X44252Y475604D01*
X44512Y475294D01*
X44766Y474977D01*
X45011Y474655D01*
X45248Y474327D01*
X45478Y473992D01*
X45699Y473653D01*
X45911Y473308D01*
X46115Y472958D01*
X46311Y472603D01*
X46497Y472243D01*
X46675Y471879D01*
X46844Y471511D01*
X47003Y471138D01*
X47154Y470762D01*
X47295Y470382D01*
X47427Y469999D01*
X47549Y469613D01*
X47662Y469223D01*
X47765Y468832D01*
X47859Y468437D01*
X47943Y468041D01*
X48017Y467643D01*
X48081Y467243D01*
X48136Y466841D01*
X48180Y466438D01*
X48215Y466035D01*
X48240Y465630D01*
X48255Y465225D01*
X48260Y464820D01*
X48255Y464415D01*
X48240Y464010D01*
X48215Y463605D01*
X48180Y463202D01*
X48136Y462799D01*
X48081Y462397D01*
X48017Y461997D01*
X47943Y461599D01*
X47859Y461203D01*
X47765Y460808D01*
X47662Y460417D01*
X47549Y460027D01*
X47427Y459641D01*
X47295Y459258D01*
X47154Y458878D01*
X47003Y458502D01*
X46844Y458129D01*
X46675Y457761D01*
X46497Y457397D01*
X46311Y457037D01*
X46115Y456682D01*
X45911Y456332D01*
X45699Y455987D01*
X45478Y455648D01*
X45248Y455313D01*
X45011Y454985D01*
X44766Y454663D01*
X44512Y454346D01*
X44252Y454036D01*
X43983Y453733D01*
X43707Y453436D01*
X43424Y453146D01*
X43134Y452863D01*
X42837Y452587D01*
X42534Y452318D01*
X42224Y452058D01*
X41907Y451804D01*
X41585Y451559D01*
X41257Y451322D01*
X40922Y451092D01*
X40583Y450871D01*
X40238Y450659D01*
X39888Y450455D01*
X39533Y450259D01*
X39173Y450073D01*
X38809Y449895D01*
X38441Y449726D01*
X38068Y449567D01*
X37692Y449416D01*
X37312Y449275D01*
X36929Y449143D01*
X36543Y449021D01*
X36153Y448908D01*
X35762Y448805D01*
X35367Y448711D01*
X34971Y448627D01*
X34573Y448553D01*
X34173Y448489D01*
X33771Y448434D01*
X33368Y448390D01*
X32965Y448355D01*
X32560Y448330D01*
X32155Y448315D01*
X31750Y448310D01*
X31345Y448315D01*
X30940Y448330D01*
X30535Y448355D01*
X30132Y448390D01*
X29729Y448434D01*
X29327Y448489D01*
X28927Y448553D01*
X28529Y448627D01*
X28133Y448711D01*
X27738Y448805D01*
X27347Y448908D01*
X26957Y449021D01*
X26571Y449143D01*
X26188Y449275D01*
X25808Y449416D01*
X25432Y449567D01*
X25059Y449726D01*
X24691Y449895D01*
X24327Y450073D01*
X23967Y450259D01*
X23612Y450455D01*
X23262Y450659D01*
X22917Y450871D01*
X22578Y451092D01*
X22243Y451322D01*
X21915Y451559D01*
X21593Y451804D01*
X21276Y452058D01*
X20966Y452318D01*
X20663Y452587D01*
X20366Y452863D01*
X20076Y453146D01*
X19793Y453436D01*
X19517Y453733D01*
X19248Y454036D01*
X18988Y454346D01*
X18734Y454663D01*
X18489Y454985D01*
X18252Y455313D01*
X18022Y455648D01*
X17801Y455987D01*
X17589Y456332D01*
X17385Y456682D01*
X17189Y457037D01*
X17003Y457397D01*
X16825Y457761D01*
X16656Y458129D01*
X16497Y458502D01*
X16346Y458878D01*
X16205Y459258D01*
X16073Y459641D01*
X15951Y460027D01*
X15838Y460417D01*
X15735Y460808D01*
X15641Y461203D01*
X15557Y461599D01*
X15483Y461997D01*
X15419Y462397D01*
X15364Y462799D01*
X15320Y463202D01*
X15285Y463605D01*
X15260Y464010D01*
X15245Y464415D01*
X15240Y464820D01*
X452120Y464820D02*
X452125Y465225D01*
X452140Y465630D01*
X452165Y466035D01*
X452200Y466438D01*
X452244Y466841D01*
X452299Y467243D01*
X452363Y467643D01*
X452437Y468041D01*
X452521Y468437D01*
X452615Y468832D01*
X452718Y469223D01*
X452831Y469613D01*
X452953Y469999D01*
X453085Y470382D01*
X453226Y470762D01*
X453377Y471138D01*
X453536Y471511D01*
X453705Y471879D01*
X453883Y472243D01*
X454069Y472603D01*
X454265Y472958D01*
X454469Y473308D01*
X454681Y473653D01*
X454902Y473992D01*
X455132Y474327D01*
X455369Y474655D01*
X455614Y474977D01*
X455868Y475294D01*
X456128Y475604D01*
X456397Y475907D01*
X456673Y476204D01*
X456956Y476494D01*
X457246Y476777D01*
X457543Y477053D01*
X457846Y477322D01*
X458156Y477582D01*
X458473Y477836D01*
X458795Y478081D01*
X459123Y478318D01*
X459458Y478548D01*
X459797Y478769D01*
X460142Y478981D01*
X460492Y479185D01*
X460847Y479381D01*
X461207Y479567D01*
X461571Y479745D01*
X461939Y479914D01*
X462312Y480073D01*
X462688Y480224D01*
X463068Y480365D01*
X463451Y480497D01*
X463837Y480619D01*
X464227Y480732D01*
X464618Y480835D01*
X465013Y480929D01*
X465409Y481013D01*
X465807Y481087D01*
X466207Y481151D01*
X466609Y481206D01*
X467012Y481250D01*
X467415Y481285D01*
X467820Y481310D01*
X468225Y481325D01*
X468630Y481330D01*
X469035Y481325D01*
X469440Y481310D01*
X469845Y481285D01*
X470248Y481250D01*
X470651Y481206D01*
X471053Y481151D01*
X471453Y481087D01*
X471851Y481013D01*
X472247Y480929D01*
X472642Y480835D01*
X473033Y480732D01*
X473423Y480619D01*
X473809Y480497D01*
X474192Y480365D01*
X474572Y480224D01*
X474948Y480073D01*
X475321Y479914D01*
X475689Y479745D01*
X476053Y479567D01*
X476413Y479381D01*
X476768Y479185D01*
X477118Y478981D01*
X477463Y478769D01*
X477802Y478548D01*
X478137Y478318D01*
X478465Y478081D01*
X478787Y477836D01*
X479104Y477582D01*
X479414Y477322D01*
X479717Y477053D01*
X480014Y476777D01*
X480304Y476494D01*
X480587Y476204D01*
X480863Y475907D01*
X481132Y475604D01*
X481392Y475294D01*
X481646Y474977D01*
X481891Y474655D01*
X482128Y474327D01*
X482358Y473992D01*
X482579Y473653D01*
X482791Y473308D01*
X482995Y472958D01*
X483191Y472603D01*
X483377Y472243D01*
X483555Y471879D01*
X483724Y471511D01*
X483883Y471138D01*
X484034Y470762D01*
X484175Y470382D01*
X484307Y469999D01*
X484429Y469613D01*
X484542Y469223D01*
X484645Y468832D01*
X484739Y468437D01*
X484823Y468041D01*
X484897Y467643D01*
X484961Y467243D01*
X485016Y466841D01*
X485060Y466438D01*
X485095Y466035D01*
X485120Y465630D01*
X485135Y465225D01*
X485140Y464820D01*
X485135Y464415D01*
X485120Y464010D01*
X485095Y463605D01*
X485060Y463202D01*
X485016Y462799D01*
X484961Y462397D01*
X484897Y461997D01*
X484823Y461599D01*
X484739Y461203D01*
X484645Y460808D01*
X484542Y460417D01*
X484429Y460027D01*
X484307Y459641D01*
X484175Y459258D01*
X484034Y458878D01*
X483883Y458502D01*
X483724Y458129D01*
X483555Y457761D01*
X483377Y457397D01*
X483191Y457037D01*
X482995Y456682D01*
X482791Y456332D01*
X482579Y455987D01*
X482358Y455648D01*
X482128Y455313D01*
X481891Y454985D01*
X481646Y454663D01*
X481392Y454346D01*
X481132Y454036D01*
X480863Y453733D01*
X480587Y453436D01*
X480304Y453146D01*
X480014Y452863D01*
X479717Y452587D01*
X479414Y452318D01*
X479104Y452058D01*
X478787Y451804D01*
X478465Y451559D01*
X478137Y451322D01*
X477802Y451092D01*
X477463Y450871D01*
X477118Y450659D01*
X476768Y450455D01*
X476413Y450259D01*
X476053Y450073D01*
X475689Y449895D01*
X475321Y449726D01*
X474948Y449567D01*
X474572Y449416D01*
X474192Y449275D01*
X473809Y449143D01*
X473423Y449021D01*
X473033Y448908D01*
X472642Y448805D01*
X472247Y448711D01*
X471851Y448627D01*
X471453Y448553D01*
X471053Y448489D01*
X470651Y448434D01*
X470248Y448390D01*
X469845Y448355D01*
X469440Y448330D01*
X469035Y448315D01*
X468630Y448310D01*
X468225Y448315D01*
X467820Y448330D01*
X467415Y448355D01*
X467012Y448390D01*
X466609Y448434D01*
X466207Y448489D01*
X465807Y448553D01*
X465409Y448627D01*
X465013Y448711D01*
X464618Y448805D01*
X464227Y448908D01*
X463837Y449021D01*
X463451Y449143D01*
X463068Y449275D01*
X462688Y449416D01*
X462312Y449567D01*
X461939Y449726D01*
X461571Y449895D01*
X461207Y450073D01*
X460847Y450259D01*
X460492Y450455D01*
X460142Y450659D01*
X459797Y450871D01*
X459458Y451092D01*
X459123Y451322D01*
X458795Y451559D01*
X458473Y451804D01*
X458156Y452058D01*
X457846Y452318D01*
X457543Y452587D01*
X457246Y452863D01*
X456956Y453146D01*
X456673Y453436D01*
X456397Y453733D01*
X456128Y454036D01*
X455868Y454346D01*
X455614Y454663D01*
X455369Y454985D01*
X455132Y455313D01*
X454902Y455648D01*
X454681Y455987D01*
X454469Y456332D01*
X454265Y456682D01*
X454069Y457037D01*
X453883Y457397D01*
X453705Y457761D01*
X453536Y458129D01*
X453377Y458502D01*
X453226Y458878D01*
X453085Y459258D01*
X452953Y459641D01*
X452831Y460027D01*
X452718Y460417D01*
X452615Y460808D01*
X452521Y461203D01*
X452437Y461599D01*
X452363Y461997D01*
X452299Y462397D01*
X452244Y462799D01*
X452200Y463202D01*
X452165Y463605D01*
X452140Y464010D01*
X452125Y464415D01*
X452120Y464820D01*
X16510Y31750D02*
X16515Y32155D01*
X16530Y32560D01*
X16555Y32965D01*
X16590Y33368D01*
X16634Y33771D01*
X16689Y34173D01*
X16753Y34573D01*
X16827Y34971D01*
X16911Y35367D01*
X17005Y35762D01*
X17108Y36153D01*
X17221Y36543D01*
X17343Y36929D01*
X17475Y37312D01*
X17616Y37692D01*
X17767Y38068D01*
X17926Y38441D01*
X18095Y38809D01*
X18273Y39173D01*
X18459Y39533D01*
X18655Y39888D01*
X18859Y40238D01*
X19071Y40583D01*
X19292Y40922D01*
X19522Y41257D01*
X19759Y41585D01*
X20004Y41907D01*
X20258Y42224D01*
X20518Y42534D01*
X20787Y42837D01*
X21063Y43134D01*
X21346Y43424D01*
X21636Y43707D01*
X21933Y43983D01*
X22236Y44252D01*
X22546Y44512D01*
X22863Y44766D01*
X23185Y45011D01*
X23513Y45248D01*
X23848Y45478D01*
X24187Y45699D01*
X24532Y45911D01*
X24882Y46115D01*
X25237Y46311D01*
X25597Y46497D01*
X25961Y46675D01*
X26329Y46844D01*
X26702Y47003D01*
X27078Y47154D01*
X27458Y47295D01*
X27841Y47427D01*
X28227Y47549D01*
X28617Y47662D01*
X29008Y47765D01*
X29403Y47859D01*
X29799Y47943D01*
X30197Y48017D01*
X30597Y48081D01*
X30999Y48136D01*
X31402Y48180D01*
X31805Y48215D01*
X32210Y48240D01*
X32615Y48255D01*
X33020Y48260D01*
X33425Y48255D01*
X33830Y48240D01*
X34235Y48215D01*
X34638Y48180D01*
X35041Y48136D01*
X35443Y48081D01*
X35843Y48017D01*
X36241Y47943D01*
X36637Y47859D01*
X37032Y47765D01*
X37423Y47662D01*
X37813Y47549D01*
X38199Y47427D01*
X38582Y47295D01*
X38962Y47154D01*
X39338Y47003D01*
X39711Y46844D01*
X40079Y46675D01*
X40443Y46497D01*
X40803Y46311D01*
X41158Y46115D01*
X41508Y45911D01*
X41853Y45699D01*
X42192Y45478D01*
X42527Y45248D01*
X42855Y45011D01*
X43177Y44766D01*
X43494Y44512D01*
X43804Y44252D01*
X44107Y43983D01*
X44404Y43707D01*
X44694Y43424D01*
X44977Y43134D01*
X45253Y42837D01*
X45522Y42534D01*
X45782Y42224D01*
X46036Y41907D01*
X46281Y41585D01*
X46518Y41257D01*
X46748Y40922D01*
X46969Y40583D01*
X47181Y40238D01*
X47385Y39888D01*
X47581Y39533D01*
X47767Y39173D01*
X47945Y38809D01*
X48114Y38441D01*
X48273Y38068D01*
X48424Y37692D01*
X48565Y37312D01*
X48697Y36929D01*
X48819Y36543D01*
X48932Y36153D01*
X49035Y35762D01*
X49129Y35367D01*
X49213Y34971D01*
X49287Y34573D01*
X49351Y34173D01*
X49406Y33771D01*
X49450Y33368D01*
X49485Y32965D01*
X49510Y32560D01*
X49525Y32155D01*
X49530Y31750D01*
X49525Y31345D01*
X49510Y30940D01*
X49485Y30535D01*
X49450Y30132D01*
X49406Y29729D01*
X49351Y29327D01*
X49287Y28927D01*
X49213Y28529D01*
X49129Y28133D01*
X49035Y27738D01*
X48932Y27347D01*
X48819Y26957D01*
X48697Y26571D01*
X48565Y26188D01*
X48424Y25808D01*
X48273Y25432D01*
X48114Y25059D01*
X47945Y24691D01*
X47767Y24327D01*
X47581Y23967D01*
X47385Y23612D01*
X47181Y23262D01*
X46969Y22917D01*
X46748Y22578D01*
X46518Y22243D01*
X46281Y21915D01*
X46036Y21593D01*
X45782Y21276D01*
X45522Y20966D01*
X45253Y20663D01*
X44977Y20366D01*
X44694Y20076D01*
X44404Y19793D01*
X44107Y19517D01*
X43804Y19248D01*
X43494Y18988D01*
X43177Y18734D01*
X42855Y18489D01*
X42527Y18252D01*
X42192Y18022D01*
X41853Y17801D01*
X41508Y17589D01*
X41158Y17385D01*
X40803Y17189D01*
X40443Y17003D01*
X40079Y16825D01*
X39711Y16656D01*
X39338Y16497D01*
X38962Y16346D01*
X38582Y16205D01*
X38199Y16073D01*
X37813Y15951D01*
X37423Y15838D01*
X37032Y15735D01*
X36637Y15641D01*
X36241Y15557D01*
X35843Y15483D01*
X35443Y15419D01*
X35041Y15364D01*
X34638Y15320D01*
X34235Y15285D01*
X33830Y15260D01*
X33425Y15245D01*
X33020Y15240D01*
X32615Y15245D01*
X32210Y15260D01*
X31805Y15285D01*
X31402Y15320D01*
X30999Y15364D01*
X30597Y15419D01*
X30197Y15483D01*
X29799Y15557D01*
X29403Y15641D01*
X29008Y15735D01*
X28617Y15838D01*
X28227Y15951D01*
X27841Y16073D01*
X27458Y16205D01*
X27078Y16346D01*
X26702Y16497D01*
X26329Y16656D01*
X25961Y16825D01*
X25597Y17003D01*
X25237Y17189D01*
X24882Y17385D01*
X24532Y17589D01*
X24187Y17801D01*
X23848Y18022D01*
X23513Y18252D01*
X23185Y18489D01*
X22863Y18734D01*
X22546Y18988D01*
X22236Y19248D01*
X21933Y19517D01*
X21636Y19793D01*
X21346Y20076D01*
X21063Y20366D01*
X20787Y20663D01*
X20518Y20966D01*
X20258Y21276D01*
X20004Y21593D01*
X19759Y21915D01*
X19522Y22243D01*
X19292Y22578D01*
X19071Y22917D01*
X18859Y23262D01*
X18655Y23612D01*
X18459Y23967D01*
X18273Y24327D01*
X18095Y24691D01*
X17926Y25059D01*
X17767Y25432D01*
X17616Y25808D01*
X17475Y26188D01*
X17343Y26571D01*
X17221Y26957D01*
X17108Y27347D01*
X17005Y27738D01*
X16911Y28133D01*
X16827Y28529D01*
X16753Y28927D01*
X16689Y29327D01*
X16634Y29729D01*
X16590Y30132D01*
X16555Y30535D01*
X16530Y30940D01*
X16515Y31345D01*
X16510Y31750D01*
X452120Y31750D02*
X452125Y32155D01*
X452140Y32560D01*
X452165Y32965D01*
X452200Y33368D01*
X452244Y33771D01*
X452299Y34173D01*
X452363Y34573D01*
X452437Y34971D01*
X452521Y35367D01*
X452615Y35762D01*
X452718Y36153D01*
X452831Y36543D01*
X452953Y36929D01*
X453085Y37312D01*
X453226Y37692D01*
X453377Y38068D01*
X453536Y38441D01*
X453705Y38809D01*
X453883Y39173D01*
X454069Y39533D01*
X454265Y39888D01*
X454469Y40238D01*
X454681Y40583D01*
X454902Y40922D01*
X455132Y41257D01*
X455369Y41585D01*
X455614Y41907D01*
X455868Y42224D01*
X456128Y42534D01*
X456397Y42837D01*
X456673Y43134D01*
X456956Y43424D01*
X457246Y43707D01*
X457543Y43983D01*
X457846Y44252D01*
X458156Y44512D01*
X458473Y44766D01*
X458795Y45011D01*
X459123Y45248D01*
X459458Y45478D01*
X459797Y45699D01*
X460142Y45911D01*
X460492Y46115D01*
X460847Y46311D01*
X461207Y46497D01*
X461571Y46675D01*
X461939Y46844D01*
X462312Y47003D01*
X462688Y47154D01*
X463068Y47295D01*
X463451Y47427D01*
X463837Y47549D01*
X464227Y47662D01*
X464618Y47765D01*
X465013Y47859D01*
X465409Y47943D01*
X465807Y48017D01*
X466207Y48081D01*
X466609Y48136D01*
X467012Y48180D01*
X467415Y48215D01*
X467820Y48240D01*
X468225Y48255D01*
X468630Y48260D01*
X469035Y48255D01*
X469440Y48240D01*
X469845Y48215D01*
X470248Y48180D01*
X470651Y48136D01*
X471053Y48081D01*
X471453Y48017D01*
X471851Y47943D01*
X472247Y47859D01*
X472642Y47765D01*
X473033Y47662D01*
X473423Y47549D01*
X473809Y47427D01*
X474192Y47295D01*
X474572Y47154D01*
X474948Y47003D01*
X475321Y46844D01*
X475689Y46675D01*
X476053Y46497D01*
X476413Y46311D01*
X476768Y46115D01*
X477118Y45911D01*
X477463Y45699D01*
X477802Y45478D01*
X478137Y45248D01*
X478465Y45011D01*
X478787Y44766D01*
X479104Y44512D01*
X479414Y44252D01*
X479717Y43983D01*
X480014Y43707D01*
X480304Y43424D01*
X480587Y43134D01*
X480863Y42837D01*
X481132Y42534D01*
X481392Y42224D01*
X481646Y41907D01*
X481891Y41585D01*
X482128Y41257D01*
X482358Y40922D01*
X482579Y40583D01*
X482791Y40238D01*
X482995Y39888D01*
X483191Y39533D01*
X483377Y39173D01*
X483555Y38809D01*
X483724Y38441D01*
X483883Y38068D01*
X484034Y37692D01*
X484175Y37312D01*
X484307Y36929D01*
X484429Y36543D01*
X484542Y36153D01*
X484645Y35762D01*
X484739Y35367D01*
X484823Y34971D01*
X484897Y34573D01*
X484961Y34173D01*
X485016Y33771D01*
X485060Y33368D01*
X485095Y32965D01*
X485120Y32560D01*
X485135Y32155D01*
X485140Y31750D01*
X485135Y31345D01*
X485120Y30940D01*
X485095Y30535D01*
X485060Y30132D01*
X485016Y29729D01*
X484961Y29327D01*
X484897Y28927D01*
X484823Y28529D01*
X484739Y28133D01*
X484645Y27738D01*
X484542Y27347D01*
X484429Y26957D01*
X484307Y26571D01*
X484175Y26188D01*
X484034Y25808D01*
X483883Y25432D01*
X483724Y25059D01*
X483555Y24691D01*
X483377Y24327D01*
X483191Y23967D01*
X482995Y23612D01*
X482791Y23262D01*
X482579Y22917D01*
X482358Y22578D01*
X482128Y22243D01*
X481891Y21915D01*
X481646Y21593D01*
X481392Y21276D01*
X481132Y20966D01*
X480863Y20663D01*
X480587Y20366D01*
X480304Y20076D01*
X480014Y19793D01*
X479717Y19517D01*
X479414Y19248D01*
X479104Y18988D01*
X478787Y18734D01*
X478465Y18489D01*
X478137Y18252D01*
X477802Y18022D01*
X477463Y17801D01*
X477118Y17589D01*
X476768Y17385D01*
X476413Y17189D01*
X476053Y17003D01*
X475689Y16825D01*
X475321Y16656D01*
X474948Y16497D01*
X474572Y16346D01*
X474192Y16205D01*
X473809Y16073D01*
X473423Y15951D01*
X473033Y15838D01*
X472642Y15735D01*
X472247Y15641D01*
X471851Y15557D01*
X471453Y15483D01*
X471053Y15419D01*
X470651Y15364D01*
X470248Y15320D01*
X469845Y15285D01*
X469440Y15260D01*
X469035Y15245D01*
X468630Y15240D01*
X468225Y15245D01*
X467820Y15260D01*
X467415Y15285D01*
X467012Y15320D01*
X466609Y15364D01*
X466207Y15419D01*
X465807Y15483D01*
X465409Y15557D01*
X465013Y15641D01*
X464618Y15735D01*
X464227Y15838D01*
X463837Y15951D01*
X463451Y16073D01*
X463068Y16205D01*
X462688Y16346D01*
X462312Y16497D01*
X461939Y16656D01*
X461571Y16825D01*
X461207Y17003D01*
X460847Y17189D01*
X460492Y17385D01*
X460142Y17589D01*
X459797Y17801D01*
X459458Y18022D01*
X459123Y18252D01*
X458795Y18489D01*
X458473Y18734D01*
X458156Y18988D01*
X457846Y19248D01*
X457543Y19517D01*
X457246Y19793D01*
X456956Y20076D01*
X456673Y20366D01*
X456397Y20663D01*
X456128Y20966D01*
X455868Y21276D01*
X455614Y21593D01*
X455369Y21915D01*
X455132Y22243D01*
X454902Y22578D01*
X454681Y22917D01*
X454469Y23262D01*
X454265Y23612D01*
X454069Y23967D01*
X453883Y24327D01*
X453705Y24691D01*
X453536Y25059D01*
X453377Y25432D01*
X453226Y25808D01*
X453085Y26188D01*
X452953Y26571D01*
X452831Y26957D01*
X452718Y27347D01*
X452615Y27738D01*
X452521Y28133D01*
X452437Y28529D01*
X452363Y28927D01*
X452299Y29327D01*
X452244Y29729D01*
X452200Y30132D01*
X452165Y30535D01*
X452140Y30940D01*
X452125Y31345D01*
X452120Y31750D01*
M02*
