G04 EAGLE Gerber RS-274X export*
G75*
%MOMM*%
%FSLAX34Y34*%
%LPD*%
%INBottom Copper Layer*%
%IPPOS*%
%AMOC8*
5,1,8,0,0,1.08239X$1,22.5*%
G01*
%ADD10C,1.879600*%
%ADD11R,1.879600X1.879600*%
%ADD12R,1.333500X1.333500*%
%ADD13C,1.333500*%
%ADD14C,2.540000*%
%ADD15C,0.812800*%
%ADD16C,0.254000*%

G36*
X454224Y11435D02*
X454224Y11435D01*
X454259Y11433D01*
X454381Y11455D01*
X454504Y11471D01*
X454537Y11484D01*
X454572Y11490D01*
X454685Y11542D01*
X454800Y11588D01*
X454828Y11608D01*
X454860Y11623D01*
X454957Y11702D01*
X455057Y11774D01*
X455080Y11802D01*
X455107Y11824D01*
X455181Y11924D01*
X455260Y12019D01*
X455275Y12052D01*
X455296Y12080D01*
X455343Y12195D01*
X455395Y12307D01*
X455402Y12342D01*
X455415Y12375D01*
X455432Y12498D01*
X455455Y12620D01*
X455453Y12655D01*
X455458Y12690D01*
X455443Y12813D01*
X455435Y12937D01*
X455424Y12971D01*
X455420Y13006D01*
X455376Y13121D01*
X455337Y13239D01*
X455318Y13269D01*
X455306Y13302D01*
X455234Y13403D01*
X455167Y13508D01*
X455141Y13532D01*
X455121Y13561D01*
X455004Y13672D01*
X451045Y16994D01*
X447059Y23899D01*
X445675Y31750D01*
X447059Y39601D01*
X451045Y46505D01*
X457152Y51630D01*
X464644Y54357D01*
X472616Y54357D01*
X480108Y51630D01*
X481784Y50223D01*
X481855Y50178D01*
X481919Y50124D01*
X481988Y50092D01*
X482051Y50051D01*
X482131Y50024D01*
X482207Y49989D01*
X482281Y49975D01*
X482353Y49951D01*
X482437Y49945D01*
X482520Y49929D01*
X482595Y49934D01*
X482670Y49928D01*
X482753Y49944D01*
X482837Y49949D01*
X482909Y49972D01*
X482983Y49986D01*
X483060Y50021D01*
X483139Y50047D01*
X483203Y50087D01*
X483272Y50119D01*
X483337Y50172D01*
X483408Y50217D01*
X483460Y50272D01*
X483519Y50320D01*
X483568Y50387D01*
X483626Y50449D01*
X483663Y50515D01*
X483708Y50576D01*
X483739Y50654D01*
X483780Y50727D01*
X483798Y50800D01*
X483827Y50870D01*
X483838Y50954D01*
X483859Y51035D01*
X483868Y51177D01*
X483869Y51186D01*
X483869Y51189D01*
X483869Y51196D01*
X483869Y445374D01*
X483859Y445458D01*
X483858Y445542D01*
X483839Y445615D01*
X483829Y445690D01*
X483799Y445768D01*
X483777Y445849D01*
X483740Y445915D01*
X483712Y445986D01*
X483663Y446053D01*
X483622Y446127D01*
X483570Y446182D01*
X483526Y446243D01*
X483461Y446296D01*
X483403Y446357D01*
X483339Y446397D01*
X483281Y446446D01*
X483205Y446481D01*
X483133Y446526D01*
X483061Y446549D01*
X482993Y446581D01*
X482911Y446597D01*
X482830Y446623D01*
X482755Y446627D01*
X482681Y446641D01*
X482597Y446636D01*
X482513Y446641D01*
X482439Y446626D01*
X482363Y446621D01*
X482283Y446595D01*
X482201Y446579D01*
X482133Y446547D01*
X482061Y446523D01*
X481990Y446478D01*
X481914Y446442D01*
X481799Y446358D01*
X481792Y446353D01*
X481790Y446351D01*
X481784Y446347D01*
X480108Y444940D01*
X472616Y442213D01*
X464644Y442213D01*
X457152Y444940D01*
X451045Y450064D01*
X447059Y456969D01*
X445675Y464820D01*
X447059Y472671D01*
X451045Y479575D01*
X453491Y481628D01*
X453515Y481654D01*
X453544Y481674D01*
X453623Y481770D01*
X453707Y481861D01*
X453724Y481892D01*
X453746Y481919D01*
X453799Y482032D01*
X453858Y482141D01*
X453867Y482175D01*
X453882Y482207D01*
X453905Y482329D01*
X453935Y482449D01*
X453935Y482485D01*
X453942Y482520D01*
X453934Y482643D01*
X453933Y482767D01*
X453924Y482802D01*
X453922Y482837D01*
X453884Y482955D01*
X453852Y483075D01*
X453835Y483106D01*
X453824Y483139D01*
X453758Y483244D01*
X453697Y483353D01*
X453673Y483378D01*
X453654Y483408D01*
X453563Y483493D01*
X453478Y483583D01*
X453448Y483602D01*
X453422Y483626D01*
X453314Y483686D01*
X453208Y483752D01*
X453175Y483763D01*
X453144Y483780D01*
X453024Y483811D01*
X452905Y483848D01*
X452870Y483850D01*
X452836Y483859D01*
X452675Y483869D01*
X47705Y483869D01*
X47670Y483865D01*
X47635Y483867D01*
X47513Y483845D01*
X47390Y483829D01*
X47357Y483816D01*
X47322Y483810D01*
X47209Y483758D01*
X47094Y483712D01*
X47065Y483692D01*
X47033Y483677D01*
X46937Y483598D01*
X46836Y483526D01*
X46814Y483498D01*
X46786Y483476D01*
X46713Y483376D01*
X46634Y483281D01*
X46619Y483249D01*
X46598Y483220D01*
X46551Y483105D01*
X46498Y482993D01*
X46492Y482958D01*
X46478Y482925D01*
X46462Y482802D01*
X46438Y482681D01*
X46441Y482645D01*
X46436Y482610D01*
X46450Y482487D01*
X46458Y482363D01*
X46469Y482329D01*
X46473Y482294D01*
X46518Y482179D01*
X46556Y482061D01*
X46575Y482031D01*
X46588Y481998D01*
X46660Y481897D01*
X46726Y481792D01*
X46752Y481768D01*
X46773Y481739D01*
X46889Y481628D01*
X49335Y479576D01*
X53321Y472671D01*
X54705Y464820D01*
X53321Y456969D01*
X49335Y450065D01*
X43228Y444940D01*
X35736Y442213D01*
X27764Y442213D01*
X20272Y444940D01*
X14165Y450064D01*
X13799Y450698D01*
X13711Y450815D01*
X13626Y450932D01*
X13615Y450941D01*
X13607Y450952D01*
X13493Y451042D01*
X13381Y451135D01*
X13368Y451141D01*
X13358Y451149D01*
X13224Y451209D01*
X13093Y451271D01*
X13080Y451273D01*
X13067Y451279D01*
X12923Y451303D01*
X12781Y451330D01*
X12767Y451329D01*
X12754Y451332D01*
X12608Y451320D01*
X12463Y451311D01*
X12450Y451306D01*
X12437Y451305D01*
X12299Y451257D01*
X12161Y451213D01*
X12149Y451205D01*
X12136Y451201D01*
X12015Y451121D01*
X11892Y451042D01*
X11883Y451032D01*
X11871Y451025D01*
X11774Y450917D01*
X11674Y450811D01*
X11667Y450799D01*
X11658Y450789D01*
X11591Y450659D01*
X11520Y450532D01*
X11517Y450519D01*
X11511Y450507D01*
X11477Y450365D01*
X11441Y450224D01*
X11440Y450206D01*
X11438Y450198D01*
X11438Y450181D01*
X11431Y450064D01*
X11431Y44307D01*
X11449Y44162D01*
X11464Y44017D01*
X11469Y44005D01*
X11471Y43991D01*
X11524Y43856D01*
X11575Y43719D01*
X11583Y43708D01*
X11588Y43695D01*
X11673Y43578D01*
X11756Y43458D01*
X11767Y43449D01*
X11774Y43438D01*
X11887Y43345D01*
X11997Y43250D01*
X12009Y43244D01*
X12019Y43235D01*
X12151Y43174D01*
X12282Y43108D01*
X12295Y43106D01*
X12307Y43100D01*
X12449Y43073D01*
X12593Y43042D01*
X12606Y43043D01*
X12620Y43040D01*
X12764Y43049D01*
X12910Y43055D01*
X12923Y43059D01*
X12937Y43060D01*
X13075Y43105D01*
X13215Y43147D01*
X13227Y43154D01*
X13239Y43158D01*
X13362Y43236D01*
X13487Y43311D01*
X13497Y43321D01*
X13508Y43328D01*
X13608Y43434D01*
X13710Y43538D01*
X13720Y43553D01*
X13726Y43560D01*
X13734Y43574D01*
X13799Y43672D01*
X15435Y46505D01*
X21542Y51630D01*
X29034Y54357D01*
X37006Y54357D01*
X44498Y51630D01*
X50605Y46506D01*
X54591Y39601D01*
X55975Y31750D01*
X54591Y23899D01*
X50605Y16995D01*
X46646Y13672D01*
X46622Y13646D01*
X46593Y13626D01*
X46514Y13530D01*
X46430Y13439D01*
X46413Y13408D01*
X46390Y13381D01*
X46337Y13268D01*
X46278Y13159D01*
X46270Y13125D01*
X46255Y13093D01*
X46231Y12971D01*
X46201Y12851D01*
X46202Y12815D01*
X46195Y12781D01*
X46203Y12657D01*
X46203Y12533D01*
X46212Y12498D01*
X46215Y12463D01*
X46253Y12345D01*
X46284Y12225D01*
X46302Y12194D01*
X46313Y12161D01*
X46379Y12056D01*
X46439Y11947D01*
X46464Y11922D01*
X46483Y11892D01*
X46573Y11807D01*
X46659Y11717D01*
X46689Y11698D01*
X46714Y11674D01*
X46823Y11614D01*
X46928Y11548D01*
X46962Y11538D01*
X46993Y11520D01*
X47113Y11490D01*
X47231Y11452D01*
X47267Y11450D01*
X47301Y11441D01*
X47462Y11431D01*
X454188Y11431D01*
X454224Y11435D01*
G37*
%LPC*%
G36*
X251524Y317753D02*
X251524Y317753D01*
X246950Y319648D01*
X243448Y323150D01*
X241553Y327724D01*
X241553Y332676D01*
X243448Y337250D01*
X246949Y340752D01*
X248078Y341219D01*
X248139Y341254D01*
X248204Y341280D01*
X248277Y341332D01*
X248355Y341377D01*
X248405Y341425D01*
X248461Y341466D01*
X248519Y341536D01*
X248583Y341598D01*
X248619Y341658D01*
X248664Y341711D01*
X248702Y341793D01*
X248749Y341869D01*
X248770Y341936D01*
X248800Y341999D01*
X248816Y342087D01*
X248843Y342173D01*
X248846Y342243D01*
X248859Y342312D01*
X248854Y342401D01*
X248858Y342491D01*
X248844Y342559D01*
X248840Y342629D01*
X248812Y342714D01*
X248794Y342802D01*
X248763Y342865D01*
X248742Y342931D01*
X248693Y343007D01*
X248654Y343088D01*
X248609Y343141D01*
X248571Y343200D01*
X248506Y343262D01*
X248448Y343330D01*
X248391Y343370D01*
X248340Y343418D01*
X248261Y343461D01*
X248188Y343513D01*
X248122Y343538D01*
X248061Y343572D01*
X247974Y343594D01*
X247890Y343626D01*
X247821Y343634D01*
X247753Y343651D01*
X247593Y343661D01*
X244268Y343661D01*
X243621Y343834D01*
X243042Y344169D01*
X242569Y344642D01*
X242234Y345221D01*
X242061Y345868D01*
X242061Y353061D01*
X252730Y353061D01*
X252848Y353076D01*
X252967Y353083D01*
X253005Y353096D01*
X253045Y353101D01*
X253156Y353144D01*
X253269Y353181D01*
X253303Y353203D01*
X253341Y353218D01*
X253437Y353288D01*
X253538Y353351D01*
X253566Y353381D01*
X253598Y353404D01*
X253674Y353496D01*
X253756Y353583D01*
X253775Y353618D01*
X253801Y353649D01*
X253852Y353757D01*
X253909Y353861D01*
X253920Y353901D01*
X253937Y353937D01*
X253959Y354054D01*
X253989Y354169D01*
X253993Y354230D01*
X253997Y354250D01*
X253995Y354270D01*
X253999Y354330D01*
X253999Y356870D01*
X253984Y356988D01*
X253977Y357107D01*
X253964Y357145D01*
X253959Y357185D01*
X253915Y357296D01*
X253879Y357409D01*
X253857Y357444D01*
X253842Y357481D01*
X253772Y357577D01*
X253709Y357678D01*
X253679Y357706D01*
X253655Y357739D01*
X253564Y357814D01*
X253477Y357896D01*
X253442Y357916D01*
X253410Y357941D01*
X253303Y357992D01*
X253198Y358050D01*
X253159Y358060D01*
X253123Y358077D01*
X253006Y358099D01*
X252891Y358129D01*
X252830Y358133D01*
X252810Y358137D01*
X252790Y358135D01*
X252730Y358139D01*
X242061Y358139D01*
X242061Y365332D01*
X242234Y365979D01*
X242569Y366558D01*
X243042Y367031D01*
X243621Y367366D01*
X244268Y367539D01*
X247593Y367539D01*
X247662Y367547D01*
X247732Y367546D01*
X247819Y367567D01*
X247908Y367579D01*
X247973Y367604D01*
X248041Y367621D01*
X248120Y367663D01*
X248204Y367696D01*
X248260Y367737D01*
X248322Y367769D01*
X248388Y367830D01*
X248461Y367882D01*
X248506Y367936D01*
X248557Y367983D01*
X248607Y368058D01*
X248664Y368127D01*
X248694Y368191D01*
X248732Y368249D01*
X248761Y368334D01*
X248799Y368415D01*
X248813Y368484D01*
X248835Y368550D01*
X248842Y368639D01*
X248859Y368727D01*
X248855Y368797D01*
X248860Y368867D01*
X248845Y368955D01*
X248840Y369045D01*
X248818Y369111D01*
X248806Y369180D01*
X248769Y369262D01*
X248741Y369347D01*
X248704Y369406D01*
X248675Y369470D01*
X248619Y369540D01*
X248571Y369616D01*
X248521Y369664D01*
X248477Y369718D01*
X248405Y369773D01*
X248340Y369834D01*
X248279Y369868D01*
X248223Y369910D01*
X248078Y369981D01*
X246949Y370448D01*
X243448Y373950D01*
X241553Y378524D01*
X241553Y383476D01*
X243448Y388050D01*
X246949Y391552D01*
X249305Y392527D01*
X249426Y392596D01*
X249548Y392661D01*
X249563Y392675D01*
X249581Y392685D01*
X249681Y392782D01*
X249784Y392875D01*
X249795Y392892D01*
X249809Y392906D01*
X249882Y393024D01*
X249958Y393141D01*
X249965Y393160D01*
X249976Y393177D01*
X250016Y393310D01*
X250062Y393442D01*
X250063Y393462D01*
X250069Y393481D01*
X250076Y393620D01*
X250087Y393759D01*
X250083Y393779D01*
X250084Y393799D01*
X250056Y393935D01*
X250032Y394072D01*
X250024Y394091D01*
X250020Y394110D01*
X249959Y394235D01*
X249902Y394362D01*
X249889Y394378D01*
X249880Y394396D01*
X249790Y394502D01*
X249703Y394610D01*
X249687Y394623D01*
X249674Y394638D01*
X249560Y394718D01*
X249449Y394802D01*
X249424Y394814D01*
X249414Y394821D01*
X249395Y394828D01*
X249305Y394873D01*
X246950Y395848D01*
X243448Y399350D01*
X241553Y403924D01*
X241553Y408876D01*
X243448Y413450D01*
X246950Y416952D01*
X251524Y418847D01*
X256476Y418847D01*
X261050Y416952D01*
X264552Y413450D01*
X266447Y408876D01*
X266447Y403924D01*
X264552Y399350D01*
X261050Y395848D01*
X258695Y394873D01*
X258575Y394804D01*
X258452Y394739D01*
X258437Y394725D01*
X258419Y394715D01*
X258319Y394618D01*
X258216Y394525D01*
X258205Y394508D01*
X258191Y394494D01*
X258118Y394375D01*
X258042Y394259D01*
X258035Y394240D01*
X258024Y394223D01*
X257983Y394090D01*
X257938Y393958D01*
X257937Y393938D01*
X257931Y393919D01*
X257924Y393780D01*
X257913Y393641D01*
X257917Y393621D01*
X257916Y393601D01*
X257944Y393465D01*
X257968Y393328D01*
X257976Y393309D01*
X257980Y393290D01*
X258041Y393164D01*
X258098Y393038D01*
X258111Y393022D01*
X258120Y393004D01*
X258210Y392898D01*
X258297Y392790D01*
X258313Y392777D01*
X258326Y392762D01*
X258440Y392682D01*
X258551Y392598D01*
X258576Y392586D01*
X258586Y392579D01*
X258605Y392572D01*
X258695Y392527D01*
X261051Y391552D01*
X264552Y388050D01*
X266447Y383476D01*
X266447Y378524D01*
X264552Y373950D01*
X261050Y370448D01*
X259922Y369981D01*
X259861Y369946D01*
X259796Y369920D01*
X259723Y369868D01*
X259645Y369823D01*
X259595Y369774D01*
X259539Y369733D01*
X259482Y369664D01*
X259417Y369602D01*
X259381Y369542D01*
X259336Y369488D01*
X259298Y369407D01*
X259251Y369331D01*
X259230Y369264D01*
X259200Y369201D01*
X259184Y369112D01*
X259157Y369027D01*
X259154Y368957D01*
X259141Y368888D01*
X259146Y368799D01*
X259142Y368709D01*
X259156Y368641D01*
X259160Y368571D01*
X259188Y368486D01*
X259206Y368398D01*
X259237Y368335D01*
X259258Y368268D01*
X259307Y368193D01*
X259346Y368112D01*
X259391Y368059D01*
X259429Y368000D01*
X259494Y367938D01*
X259552Y367870D01*
X259609Y367830D01*
X259660Y367782D01*
X259739Y367739D01*
X259812Y367687D01*
X259878Y367662D01*
X259939Y367628D01*
X260026Y367606D01*
X260110Y367574D01*
X260179Y367566D01*
X260247Y367549D01*
X260407Y367539D01*
X263732Y367539D01*
X264379Y367366D01*
X264958Y367031D01*
X265431Y366558D01*
X265766Y365979D01*
X265939Y365332D01*
X265939Y358139D01*
X255270Y358139D01*
X255152Y358124D01*
X255033Y358117D01*
X254995Y358104D01*
X254955Y358099D01*
X254844Y358056D01*
X254731Y358019D01*
X254697Y357997D01*
X254659Y357982D01*
X254563Y357912D01*
X254462Y357849D01*
X254434Y357819D01*
X254402Y357795D01*
X254326Y357704D01*
X254244Y357617D01*
X254225Y357582D01*
X254199Y357551D01*
X254148Y357443D01*
X254091Y357339D01*
X254080Y357299D01*
X254063Y357263D01*
X254041Y357146D01*
X254011Y357031D01*
X254007Y356970D01*
X254003Y356950D01*
X254005Y356930D01*
X254001Y356870D01*
X254001Y354330D01*
X254016Y354212D01*
X254023Y354093D01*
X254036Y354055D01*
X254041Y354014D01*
X254085Y353903D01*
X254121Y353791D01*
X254143Y353756D01*
X254158Y353719D01*
X254228Y353623D01*
X254291Y353522D01*
X254321Y353494D01*
X254345Y353461D01*
X254436Y353386D01*
X254523Y353304D01*
X254558Y353284D01*
X254590Y353259D01*
X254697Y353208D01*
X254802Y353150D01*
X254841Y353140D01*
X254877Y353123D01*
X254994Y353101D01*
X255109Y353071D01*
X255170Y353067D01*
X255190Y353063D01*
X255210Y353065D01*
X255270Y353061D01*
X265939Y353061D01*
X265939Y345868D01*
X265766Y345221D01*
X265431Y344642D01*
X264958Y344169D01*
X264379Y343834D01*
X263732Y343661D01*
X260407Y343661D01*
X260338Y343653D01*
X260268Y343654D01*
X260181Y343633D01*
X260092Y343621D01*
X260027Y343596D01*
X259959Y343579D01*
X259880Y343537D01*
X259796Y343504D01*
X259740Y343463D01*
X259678Y343431D01*
X259612Y343370D01*
X259539Y343318D01*
X259494Y343264D01*
X259443Y343217D01*
X259393Y343142D01*
X259336Y343073D01*
X259306Y343009D01*
X259268Y342951D01*
X259239Y342866D01*
X259201Y342785D01*
X259187Y342716D01*
X259165Y342650D01*
X259158Y342561D01*
X259141Y342473D01*
X259145Y342403D01*
X259140Y342333D01*
X259155Y342245D01*
X259160Y342155D01*
X259182Y342089D01*
X259194Y342020D01*
X259231Y341938D01*
X259259Y341853D01*
X259296Y341794D01*
X259325Y341730D01*
X259381Y341660D01*
X259429Y341584D01*
X259479Y341536D01*
X259523Y341482D01*
X259595Y341427D01*
X259660Y341366D01*
X259721Y341332D01*
X259777Y341290D01*
X259922Y341219D01*
X261051Y340752D01*
X264552Y337250D01*
X266447Y332676D01*
X266447Y327724D01*
X264552Y323150D01*
X261050Y319648D01*
X256476Y317753D01*
X251524Y317753D01*
G37*
%LPD*%
%LPC*%
G36*
X111167Y250951D02*
X111167Y250951D01*
X105379Y253349D01*
X100949Y257779D01*
X98551Y263567D01*
X98551Y269833D01*
X100949Y275621D01*
X105379Y280051D01*
X111167Y282449D01*
X142833Y282449D01*
X148621Y280051D01*
X153051Y275621D01*
X155449Y269833D01*
X155449Y263567D01*
X153051Y257779D01*
X148621Y253349D01*
X142833Y250951D01*
X111167Y250951D01*
G37*
%LPD*%
%LPC*%
G36*
X365167Y111251D02*
X365167Y111251D01*
X359379Y113649D01*
X354949Y118079D01*
X352551Y123867D01*
X352551Y130133D01*
X354949Y135921D01*
X359379Y140351D01*
X365167Y142749D01*
X396833Y142749D01*
X402621Y140351D01*
X407051Y135921D01*
X409449Y130133D01*
X409449Y123867D01*
X407051Y118079D01*
X402621Y113649D01*
X396833Y111251D01*
X365167Y111251D01*
G37*
%LPD*%
%LPC*%
G36*
X370339Y241553D02*
X370339Y241553D01*
X368553Y243339D01*
X368553Y264661D01*
X370339Y266447D01*
X391661Y266447D01*
X393447Y264661D01*
X393447Y243339D01*
X391661Y241553D01*
X370339Y241553D01*
G37*
%LPD*%
%LPC*%
G36*
X116339Y381253D02*
X116339Y381253D01*
X114553Y383039D01*
X114553Y404361D01*
X116339Y406147D01*
X137661Y406147D01*
X139447Y404361D01*
X139447Y383039D01*
X137661Y381253D01*
X116339Y381253D01*
G37*
%LPD*%
%LPC*%
G36*
X370339Y355853D02*
X370339Y355853D01*
X368553Y357639D01*
X368553Y378961D01*
X370339Y380747D01*
X391661Y380747D01*
X393447Y378961D01*
X393447Y357639D01*
X391661Y355853D01*
X370339Y355853D01*
G37*
%LPD*%
%LPC*%
G36*
X290685Y310387D02*
X290685Y310387D01*
X288071Y311470D01*
X286070Y313471D01*
X284987Y316085D01*
X284987Y318915D01*
X286070Y321529D01*
X287410Y322868D01*
X287470Y322947D01*
X287538Y323019D01*
X287567Y323072D01*
X287604Y323120D01*
X287644Y323211D01*
X287692Y323297D01*
X287707Y323356D01*
X287731Y323412D01*
X287746Y323509D01*
X287771Y323605D01*
X287777Y323705D01*
X287781Y323726D01*
X287779Y323738D01*
X287781Y323766D01*
X287781Y336634D01*
X287769Y336732D01*
X287766Y336831D01*
X287749Y336890D01*
X287741Y336950D01*
X287705Y337042D01*
X287677Y337137D01*
X287647Y337189D01*
X287624Y337245D01*
X287566Y337325D01*
X287516Y337411D01*
X287450Y337486D01*
X287438Y337503D01*
X287428Y337510D01*
X287410Y337532D01*
X286070Y338871D01*
X284987Y341485D01*
X284987Y344315D01*
X286070Y346929D01*
X288071Y348930D01*
X290685Y350013D01*
X293515Y350013D01*
X296129Y348930D01*
X298130Y346929D01*
X299213Y344315D01*
X299213Y341485D01*
X298130Y338871D01*
X296790Y337532D01*
X296730Y337453D01*
X296662Y337381D01*
X296633Y337328D01*
X296596Y337280D01*
X296556Y337189D01*
X296508Y337103D01*
X296493Y337044D01*
X296469Y336988D01*
X296454Y336890D01*
X296429Y336795D01*
X296423Y336695D01*
X296419Y336674D01*
X296421Y336662D01*
X296419Y336634D01*
X296419Y323766D01*
X296431Y323668D01*
X296434Y323569D01*
X296451Y323510D01*
X296459Y323450D01*
X296495Y323358D01*
X296523Y323263D01*
X296553Y323211D01*
X296576Y323155D01*
X296634Y323075D01*
X296684Y322989D01*
X296750Y322914D01*
X296762Y322897D01*
X296772Y322890D01*
X296790Y322868D01*
X298130Y321529D01*
X299213Y318915D01*
X299213Y316085D01*
X298130Y313471D01*
X296129Y311470D01*
X293515Y310387D01*
X290685Y310387D01*
G37*
%LPD*%
%LPC*%
G36*
X246070Y180784D02*
X246070Y180784D01*
X244284Y182570D01*
X244284Y198430D01*
X246070Y200216D01*
X261930Y200216D01*
X263716Y198430D01*
X263716Y182570D01*
X261930Y180784D01*
X246070Y180784D01*
G37*
%LPD*%
%LPC*%
G36*
X129539Y218439D02*
X129539Y218439D01*
X129539Y231141D01*
X140699Y231141D01*
X142680Y230880D01*
X144610Y230363D01*
X146455Y229598D01*
X148185Y228599D01*
X149770Y227383D01*
X151183Y225970D01*
X152399Y224385D01*
X153398Y222655D01*
X154163Y220810D01*
X154680Y218880D01*
X154738Y218439D01*
X129539Y218439D01*
G37*
%LPD*%
%LPC*%
G36*
X383539Y180339D02*
X383539Y180339D01*
X383539Y193041D01*
X394699Y193041D01*
X396680Y192780D01*
X398610Y192263D01*
X400455Y191498D01*
X402185Y190499D01*
X403770Y189283D01*
X405183Y187870D01*
X406399Y186285D01*
X407398Y184555D01*
X408163Y182710D01*
X408680Y180780D01*
X408738Y180339D01*
X383539Y180339D01*
G37*
%LPD*%
%LPC*%
G36*
X99262Y218439D02*
X99262Y218439D01*
X99320Y218880D01*
X99837Y220810D01*
X100602Y222655D01*
X101601Y224385D01*
X102817Y225970D01*
X104230Y227383D01*
X105815Y228599D01*
X107545Y229598D01*
X109390Y230363D01*
X111320Y230880D01*
X113301Y231141D01*
X124461Y231141D01*
X124461Y218439D01*
X99262Y218439D01*
G37*
%LPD*%
%LPC*%
G36*
X353262Y180339D02*
X353262Y180339D01*
X353320Y180780D01*
X353837Y182710D01*
X354602Y184555D01*
X355601Y186285D01*
X356817Y187870D01*
X358230Y189283D01*
X359815Y190499D01*
X361545Y191498D01*
X363390Y192263D01*
X365320Y192780D01*
X367301Y193041D01*
X378461Y193041D01*
X378461Y180339D01*
X353262Y180339D01*
G37*
%LPD*%
%LPC*%
G36*
X129539Y200659D02*
X129539Y200659D01*
X129539Y213361D01*
X154738Y213361D01*
X154680Y212920D01*
X154163Y210990D01*
X153398Y209145D01*
X152399Y207415D01*
X151183Y205830D01*
X149770Y204417D01*
X148185Y203201D01*
X146455Y202202D01*
X144610Y201437D01*
X142680Y200920D01*
X140699Y200659D01*
X129539Y200659D01*
G37*
%LPD*%
%LPC*%
G36*
X383539Y162559D02*
X383539Y162559D01*
X383539Y175261D01*
X408738Y175261D01*
X408680Y174820D01*
X408163Y172890D01*
X407398Y171045D01*
X406399Y169315D01*
X405183Y167730D01*
X403770Y166317D01*
X402185Y165101D01*
X400455Y164102D01*
X398610Y163337D01*
X396680Y162820D01*
X394699Y162559D01*
X383539Y162559D01*
G37*
%LPD*%
%LPC*%
G36*
X113301Y200659D02*
X113301Y200659D01*
X111320Y200920D01*
X109390Y201437D01*
X107545Y202202D01*
X105815Y203201D01*
X104230Y204417D01*
X102817Y205830D01*
X101601Y207415D01*
X100602Y209145D01*
X99837Y210990D01*
X99320Y212920D01*
X99262Y213361D01*
X124461Y213361D01*
X124461Y200659D01*
X113301Y200659D01*
G37*
%LPD*%
%LPC*%
G36*
X367301Y162559D02*
X367301Y162559D01*
X365320Y162820D01*
X363390Y163337D01*
X361545Y164102D01*
X359815Y165101D01*
X358230Y166317D01*
X356817Y167730D01*
X355601Y169315D01*
X354602Y171045D01*
X353837Y172890D01*
X353320Y174820D01*
X353262Y175261D01*
X378461Y175261D01*
X378461Y162559D01*
X367301Y162559D01*
G37*
%LPD*%
%LPC*%
G36*
X383539Y421639D02*
X383539Y421639D01*
X383539Y430785D01*
X383796Y430745D01*
X385583Y430164D01*
X387257Y429311D01*
X388778Y428206D01*
X390106Y426878D01*
X391211Y425357D01*
X392064Y423683D01*
X392645Y421896D01*
X392685Y421639D01*
X383539Y421639D01*
G37*
%LPD*%
%LPC*%
G36*
X129539Y345439D02*
X129539Y345439D01*
X129539Y354585D01*
X129796Y354545D01*
X131583Y353964D01*
X133257Y353111D01*
X134778Y352006D01*
X136106Y350678D01*
X137211Y349157D01*
X138064Y347483D01*
X138645Y345696D01*
X138685Y345439D01*
X129539Y345439D01*
G37*
%LPD*%
%LPC*%
G36*
X383539Y307339D02*
X383539Y307339D01*
X383539Y316485D01*
X383796Y316445D01*
X385583Y315864D01*
X387257Y315011D01*
X388778Y313906D01*
X390106Y312578D01*
X391211Y311057D01*
X392064Y309383D01*
X392645Y307596D01*
X392685Y307339D01*
X383539Y307339D01*
G37*
%LPD*%
%LPC*%
G36*
X369315Y421639D02*
X369315Y421639D01*
X369355Y421896D01*
X369936Y423683D01*
X370789Y425357D01*
X371894Y426878D01*
X373222Y428206D01*
X374743Y429311D01*
X376417Y430164D01*
X378204Y430745D01*
X378461Y430785D01*
X378461Y421639D01*
X369315Y421639D01*
G37*
%LPD*%
%LPC*%
G36*
X383539Y416561D02*
X383539Y416561D01*
X392685Y416561D01*
X392645Y416304D01*
X392064Y414517D01*
X391211Y412843D01*
X390106Y411322D01*
X388778Y409994D01*
X387257Y408889D01*
X385583Y408036D01*
X383796Y407455D01*
X383539Y407415D01*
X383539Y416561D01*
G37*
%LPD*%
%LPC*%
G36*
X115315Y345439D02*
X115315Y345439D01*
X115355Y345696D01*
X115936Y347483D01*
X116789Y349157D01*
X117894Y350678D01*
X119222Y352006D01*
X120743Y353111D01*
X122417Y353964D01*
X124204Y354545D01*
X124461Y354585D01*
X124461Y345439D01*
X115315Y345439D01*
G37*
%LPD*%
%LPC*%
G36*
X129539Y340361D02*
X129539Y340361D01*
X138685Y340361D01*
X138645Y340104D01*
X138064Y338317D01*
X137211Y336643D01*
X136106Y335122D01*
X134778Y333794D01*
X133257Y332689D01*
X131583Y331836D01*
X129796Y331255D01*
X129539Y331215D01*
X129539Y340361D01*
G37*
%LPD*%
%LPC*%
G36*
X383539Y302261D02*
X383539Y302261D01*
X392685Y302261D01*
X392645Y302004D01*
X392064Y300217D01*
X391211Y298543D01*
X390106Y297022D01*
X388778Y295694D01*
X387257Y294589D01*
X385583Y293736D01*
X383796Y293155D01*
X383539Y293115D01*
X383539Y302261D01*
G37*
%LPD*%
%LPC*%
G36*
X369315Y307339D02*
X369315Y307339D01*
X369355Y307596D01*
X369936Y309383D01*
X370789Y311057D01*
X371894Y312578D01*
X373222Y313906D01*
X374743Y315011D01*
X376417Y315864D01*
X378204Y316445D01*
X378461Y316485D01*
X378461Y307339D01*
X369315Y307339D01*
G37*
%LPD*%
%LPC*%
G36*
X124204Y331255D02*
X124204Y331255D01*
X122417Y331836D01*
X120743Y332689D01*
X119222Y333794D01*
X117894Y335122D01*
X116789Y336643D01*
X115936Y338317D01*
X115355Y340104D01*
X115315Y340361D01*
X124461Y340361D01*
X124461Y331215D01*
X124204Y331255D01*
G37*
%LPD*%
%LPC*%
G36*
X378204Y293155D02*
X378204Y293155D01*
X376417Y293736D01*
X374743Y294589D01*
X373222Y295694D01*
X371894Y297022D01*
X370789Y298543D01*
X369936Y300217D01*
X369355Y302004D01*
X369315Y302261D01*
X378461Y302261D01*
X378461Y293115D01*
X378204Y293155D01*
G37*
%LPD*%
%LPC*%
G36*
X378204Y407455D02*
X378204Y407455D01*
X376417Y408036D01*
X374743Y408889D01*
X373222Y409994D01*
X371894Y411322D01*
X370789Y412843D01*
X369936Y414517D01*
X369355Y416304D01*
X369315Y416561D01*
X378461Y416561D01*
X378461Y407415D01*
X378204Y407455D01*
G37*
%LPD*%
%LPC*%
G36*
X256222Y268922D02*
X256222Y268922D01*
X256222Y275660D01*
X257535Y275234D01*
X258826Y274576D01*
X259999Y273724D01*
X261024Y272699D01*
X261876Y271526D01*
X262534Y270235D01*
X262960Y268922D01*
X256222Y268922D01*
G37*
%LPD*%
%LPC*%
G36*
X256222Y264478D02*
X256222Y264478D01*
X262960Y264478D01*
X262534Y263165D01*
X261876Y261874D01*
X261024Y260701D01*
X259999Y259676D01*
X258826Y258824D01*
X257535Y258166D01*
X256222Y257740D01*
X256222Y264478D01*
G37*
%LPD*%
%LPC*%
G36*
X245040Y268922D02*
X245040Y268922D01*
X245466Y270235D01*
X246124Y271526D01*
X246976Y272699D01*
X248001Y273724D01*
X249174Y274576D01*
X250465Y275234D01*
X251778Y275660D01*
X251778Y268922D01*
X245040Y268922D01*
G37*
%LPD*%
%LPC*%
G36*
X250465Y258166D02*
X250465Y258166D01*
X249174Y258824D01*
X248001Y259676D01*
X246976Y260701D01*
X246124Y261874D01*
X245466Y263165D01*
X245040Y264478D01*
X251778Y264478D01*
X251778Y257740D01*
X250465Y258166D01*
G37*
%LPD*%
%LPC*%
G36*
X380999Y304799D02*
X380999Y304799D01*
X380999Y304801D01*
X381001Y304801D01*
X381001Y304799D01*
X380999Y304799D01*
G37*
%LPD*%
%LPC*%
G36*
X126999Y342899D02*
X126999Y342899D01*
X126999Y342901D01*
X127001Y342901D01*
X127001Y342899D01*
X126999Y342899D01*
G37*
%LPD*%
%LPC*%
G36*
X380999Y177799D02*
X380999Y177799D01*
X380999Y177801D01*
X381001Y177801D01*
X381001Y177799D01*
X380999Y177799D01*
G37*
%LPD*%
%LPC*%
G36*
X380999Y419099D02*
X380999Y419099D01*
X380999Y419101D01*
X381001Y419101D01*
X381001Y419099D01*
X380999Y419099D01*
G37*
%LPD*%
%LPC*%
G36*
X126999Y215899D02*
X126999Y215899D01*
X126999Y215901D01*
X127001Y215901D01*
X127001Y215899D01*
X126999Y215899D01*
G37*
%LPD*%
D10*
X254000Y330200D03*
D11*
X254000Y355600D03*
D10*
X254000Y381000D03*
X254000Y406400D03*
D12*
X254000Y190500D03*
D13*
X254000Y266700D03*
D11*
X127000Y393700D03*
D10*
X127000Y342900D03*
D11*
X381000Y368300D03*
D10*
X381000Y419100D03*
D14*
X139700Y215900D02*
X114300Y215900D01*
X114300Y266700D02*
X139700Y266700D01*
X368300Y177800D02*
X393700Y177800D01*
X393700Y127000D02*
X368300Y127000D01*
D11*
X381000Y254000D03*
D10*
X381000Y304800D03*
D15*
X292100Y317500D03*
D16*
X292100Y342900D01*
D15*
X292100Y342900D03*
M02*
