M48
;GenerationSoftware,Autodesk,EAGLE,9.4.2*%
;CreationDate,2019-08-18T21:54:25Z*%
FMAT,2
ICI,OFF
METRIC,TZ,000.000
T5C0.508
T4C0.889
T3C1.016
T2C1.270
T1C3.302
%
G90
M71
T1
X3175Y46482
X46863Y46482
X3302Y3175
X46863Y3175
T2
X12700Y21590
X12700Y26670
X38100Y17780
X38100Y12700
T3
X25400Y33020
X25400Y35560
X25400Y38100
X25400Y40640
X12700Y39370
X12700Y34290
X38100Y36830
X38100Y41910
X38100Y25400
X38100Y30480
T4
X25400Y19050
X25400Y26670
T5
X29210Y31750
X29210Y34290
M30